<?xml version="1.0" encoding="UTF-8"?>
<svg width="472px" height="115px" viewBox="0 0 472 115" version="1.1" xmlns="http://www.w3.org/2000/svg" xmlns:xlink="http://www.w3.org/1999/xlink">
    <!-- Generator: Sketch 47.1 (45422) - http://www.bohemiancoding.com/sketch -->
    <title>logo-white</title>
    <desc>Created with Sketch.</desc>
    <defs></defs>
    <g id="Page-1" stroke="none" stroke-width="1" fill="none" fill-rule="evenodd">
        <g id="logo-white" fill-rule="nonzero" fill="#FFFFFF">
            <path d="M372.631,108.257 L375.976,108.257 L378.964,114.139 C379.083,114.377 379.274,114.568 379.584,114.568 L381.404,114.568 C381.641,114.568 381.786,114.425 381.786,114.188 L381.619,113.709 L378.51,107.828 C380.805,107.133 381.81,105.437 381.81,103.264 L381.81,102.736 C381.81,99.486 379.659,97.837 376.646,97.837 L370.597,97.837 C370.287,97.837 370.048,98.098 370.048,98.41 L370.048,114.019 C370.048,114.329 370.287,114.568 370.597,114.568 L372.055,114.568 C372.365,114.568 372.631,114.329 372.631,114.019 L372.631,108.257 L372.631,108.257 Z M372.631,100.25 L376.479,100.25 C377.962,100.25 379.229,100.921 379.229,102.905 L379.229,103.264 C379.229,105.054 377.961,105.845 376.479,105.845 L372.631,105.845 L372.631,100.25 Z M364.693,98.41 C364.693,98.098 364.431,97.837 364.122,97.837 L354.796,97.837 C354.486,97.837 354.246,98.098 354.246,98.41 L354.246,114.019 C354.246,114.329 354.487,114.568 354.796,114.568 L364.122,114.568 C364.432,114.568 364.693,114.329 364.693,114.019 L364.693,112.728 C364.693,112.393 364.431,112.178 364.122,112.178 L356.828,112.178 L356.828,107.3 L362.588,107.3 C362.901,107.3 363.165,107.063 363.165,106.75 L363.165,105.461 C363.165,105.151 362.902,104.888 362.588,104.888 L356.828,104.888 L356.828,100.249 L364.122,100.249 C364.432,100.249 364.693,100.01 364.693,99.7 L364.693,98.41 Z M336.701,99.701 C336.701,100.011 336.938,100.25 337.273,100.25 L341.815,100.25 L341.815,114.02 C341.815,114.33 342.056,114.569 342.366,114.569 L343.824,114.569 C344.135,114.569 344.372,114.33 344.372,114.02 L344.372,100.25 L348.914,100.25 C349.227,100.25 349.487,100.011 349.487,99.701 L349.487,98.41 C349.487,98.098 349.227,97.837 348.914,97.837 L337.272,97.837 C336.937,97.837 336.7,98.098 336.7,98.41 L336.7,99.701 L336.701,99.701 Z M321.927,114.02 L321.927,101.902 L329.195,113.927 C329.577,114.569 329.862,114.569 330.077,114.569 L331.394,114.569 C331.704,114.569 331.967,114.33 331.967,114.02 L331.967,98.41 C331.967,98.098 331.704,97.837 331.394,97.837 L330.008,97.837 C329.698,97.837 329.435,98.098 329.435,98.41 L329.435,109.861 L322.453,98.29 C322.357,98.121 322.142,97.837 321.808,97.837 L319.967,97.837 C319.657,97.837 319.417,98.098 319.417,98.41 L319.417,114.019 C319.417,114.329 319.658,114.568 319.967,114.568 L321.377,114.568 C321.686,114.568 321.927,114.329 321.927,114.02 L321.927,114.02 Z M314.062,98.41 C314.062,98.098 313.799,97.837 313.489,97.837 L304.166,97.837 C303.856,97.837 303.616,98.098 303.616,98.41 L303.616,114.019 C303.616,114.329 303.856,114.568 304.166,114.568 L313.489,114.568 C313.799,114.568 314.062,114.329 314.062,114.019 L314.062,112.728 C314.062,112.393 313.799,112.178 313.489,112.178 L306.197,112.178 L306.197,107.3 L311.958,107.3 C312.27,107.3 312.534,107.063 312.534,106.75 L312.534,105.461 C312.534,105.151 312.27,104.888 311.958,104.888 L306.197,104.888 L306.197,100.249 L313.489,100.249 C313.799,100.249 314.062,100.01 314.062,99.7 L314.062,98.41 Z M295.917,108.785 C295.607,108.785 295.511,109.021 295.463,109.311 C295.274,111.055 294.027,112.417 291.972,112.417 C289.868,112.417 288.173,110.865 288.173,108.066 L288.173,104.384 C288.173,101.592 289.869,100.01 291.95,100.01 C294.028,100.01 295.2,101.468 295.438,103.047 C295.486,103.429 295.676,103.549 295.894,103.549 L297.659,103.549 C297.951,103.549 298.117,103.379 298.091,103.07 C297.805,100.155 295.583,97.597 291.949,97.597 C288.315,97.597 285.592,100.274 285.592,104.36 L285.592,108.067 C285.592,112.131 288.338,114.81 291.971,114.81 C295.582,114.81 297.927,112.109 298.117,109.217 C298.117,108.998 297.95,108.786 297.733,108.786 L295.917,108.786 L295.917,108.785 Z M262.069,114.02 L262.069,101.902 L269.337,113.927 C269.716,114.569 270.003,114.569 270.22,114.569 L271.535,114.569 C271.845,114.569 272.106,114.33 272.106,114.02 L272.106,98.41 C272.106,98.098 271.844,97.837 271.535,97.837 L270.148,97.837 C269.836,97.837 269.574,98.098 269.574,98.41 L269.574,109.861 L262.593,98.29 C262.496,98.121 262.281,97.837 261.949,97.837 L260.109,97.837 C259.796,97.837 259.558,98.098 259.558,98.41 L259.558,114.019 C259.558,114.329 259.796,114.568 260.109,114.568 L261.518,114.568 C261.829,114.568 262.069,114.329 262.069,114.02 L262.069,114.02 Z M243.778,104.384 C243.778,101.592 245.475,100.01 247.558,100.01 C249.636,100.01 251.383,101.592 251.383,104.384 L251.383,108.066 C251.383,110.865 249.636,112.417 247.581,112.417 C245.475,112.417 243.778,110.865 243.778,108.066 L243.778,104.384 Z M241.199,108.066 C241.199,112.13 243.948,114.809 247.582,114.809 C251.19,114.809 253.964,112.13 253.964,108.066 L253.964,104.337 C253.964,100.273 251.19,97.596 247.559,97.596 C243.925,97.596 241.199,100.273 241.199,104.337 L241.199,108.066 Z M235.03,114.568 C235.341,114.568 235.605,114.329 235.605,114.019 L235.605,98.41 C235.605,98.098 235.34,97.837 235.03,97.837 L233.572,97.837 C233.262,97.837 233.022,98.098 233.022,98.41 L233.022,114.019 C233.022,114.329 233.262,114.568 233.572,114.568 L235.03,114.568 Z M215.478,99.701 C215.478,100.011 215.715,100.25 216.051,100.25 L220.594,100.25 L220.594,114.02 C220.594,114.33 220.833,114.569 221.143,114.569 L222.601,114.569 C222.913,114.569 223.152,114.33 223.152,114.02 L223.152,100.25 L227.694,100.25 C228.004,100.25 228.267,100.011 228.267,99.701 L228.267,98.41 C228.267,98.098 228.004,97.837 227.694,97.837 L216.052,97.837 C215.716,97.837 215.479,98.098 215.479,98.41 L215.479,99.701 L215.478,99.701 Z M203.308,110.649 L210.073,110.649 L211.341,114.258 C211.391,114.425 211.533,114.568 211.82,114.568 L213.591,114.568 C213.807,114.568 213.995,114.425 213.995,114.188 L213.852,113.709 L208.283,98.29 C208.209,98.073 208.044,97.837 207.731,97.837 L205.771,97.837 C205.461,97.837 205.269,98.073 205.199,98.29 L199.652,113.732 L199.507,114.188 C199.507,114.425 199.699,114.568 199.914,114.568 L201.588,114.568 C201.756,114.568 201.972,114.523 202.043,114.235 L203.308,110.649 Z M209.284,108.328 L204.095,108.328 L206.702,100.849 L209.284,108.328 Z M186.859,108.257 L190.206,108.257 L193.192,114.139 C193.314,114.377 193.502,114.568 193.815,114.568 L195.631,114.568 C195.869,114.568 196.013,114.425 196.013,114.188 L195.846,113.709 L192.738,107.828 C195.034,107.133 196.038,105.437 196.038,103.264 L196.038,102.736 C196.038,99.486 193.885,97.837 190.875,97.837 L184.827,97.837 C184.514,97.837 184.274,98.098 184.274,98.41 L184.274,114.019 C184.274,114.329 184.514,114.568 184.827,114.568 L186.285,114.568 C186.595,114.568 186.859,114.329 186.859,114.019 L186.859,108.257 Z M186.859,100.25 L190.708,100.25 C192.19,100.25 193.455,100.921 193.455,102.905 L193.455,103.264 C193.455,105.054 192.19,105.845 190.708,105.845 L186.859,105.845 L186.859,100.25 L186.859,100.25 Z M175.91,107.972 L175.91,108.928 C175.91,110.34 174.738,112.418 172.229,112.418 C170.101,112.418 168.38,110.866 168.38,108.067 L168.38,104.385 C168.38,101.593 170.076,100.011 172.206,100.011 C174.477,100.011 175.55,101.638 175.742,103.048 C175.814,103.38 175.958,103.55 176.197,103.55 L178.014,103.55 C178.228,103.55 178.373,103.404 178.373,103.168 L178.349,102.833 C177.966,100.107 175.864,97.597 172.207,97.597 C168.547,97.597 165.798,100.274 165.798,104.338 L165.798,108.067 C165.798,111.916 168.213,114.81 172.062,114.81 C173.877,114.81 175.41,114.043 176.126,112.851 L176.126,114.021 C176.126,114.331 176.365,114.57 176.675,114.57 L177.847,114.57 C178.157,114.57 178.396,114.331 178.396,114.021 L178.396,106.182 C178.396,105.869 178.157,105.629 177.847,105.629 L172.468,105.629 C172.156,105.629 171.917,105.869 171.917,106.182 L171.917,107.401 C171.917,107.711 172.156,107.974 172.468,107.974 L175.91,107.974 L175.91,107.972 Z M159.631,114.568 C159.941,114.568 160.203,114.329 160.203,114.019 L160.203,98.41 C160.203,98.098 159.941,97.837 159.631,97.837 L158.173,97.837 C157.861,97.837 157.622,98.098 157.622,98.41 L157.622,114.019 C157.622,114.329 157.861,114.568 158.173,114.568 L159.631,114.568 Z M136.562,114.568 C136.872,114.568 137.136,114.329 137.136,114.019 L137.136,101.682 L141.798,114.235 C141.869,114.449 141.99,114.568 142.277,114.568 L143.614,114.568 C143.829,114.568 144.021,114.473 144.115,114.213 L148.705,101.755 L148.705,114.02 C148.705,114.33 148.967,114.569 149.281,114.569 L150.641,114.569 C150.955,114.569 151.194,114.33 151.194,114.02 L151.194,98.41 C151.194,98.098 150.955,97.837 150.641,97.837 L148.131,97.837 C147.916,97.837 147.771,98.003 147.701,98.17 L142.97,110.981 L138.26,98.147 C138.189,98.002 138.045,97.836 137.782,97.836 L135.225,97.836 C134.912,97.836 134.674,98.097 134.674,98.409 L134.674,114.018 C134.674,114.328 134.911,114.567 135.225,114.567 L136.562,114.567 L136.562,114.568 Z M129.319,98.41 C129.319,98.098 129.057,97.837 128.745,97.837 L119.421,97.837 C119.111,97.837 118.872,98.098 118.872,98.41 L118.872,114.019 C118.872,114.329 119.111,114.568 119.421,114.568 L128.745,114.568 C129.057,114.568 129.319,114.329 129.319,114.019 L129.319,112.728 C129.319,112.393 129.057,112.178 128.745,112.178 L121.454,112.178 L121.454,107.3 L127.216,107.3 C127.527,107.3 127.789,107.063 127.789,106.75 L127.789,105.461 C127.789,105.151 127.527,104.888 127.216,104.888 L121.454,104.888 L121.454,100.249 L128.745,100.249 C129.057,100.249 129.319,100.01 129.319,99.7 L129.319,98.41 Z M94.823,114.02 L94.823,101.902 L102.092,113.927 C102.476,114.569 102.761,114.569 102.977,114.569 L104.29,114.569 C104.6,114.569 104.863,114.33 104.863,114.02 L104.863,98.41 C104.863,98.098 104.6,97.837 104.29,97.837 L102.903,97.837 C102.593,97.837 102.331,98.098 102.331,98.41 L102.331,109.861 L95.349,98.29 C95.254,98.121 95.039,97.837 94.705,97.837 L92.864,97.837 C92.553,97.837 92.315,98.098 92.315,98.41 L92.315,114.019 C92.315,114.329 92.553,114.568 92.864,114.568 L94.274,114.568 C94.585,114.568 94.823,114.329 94.823,114.02 L94.823,114.02 Z M77.418,110.649 L84.183,110.649 L85.449,114.258 C85.496,114.425 85.641,114.568 85.928,114.568 L87.697,114.568 C87.912,114.568 88.104,114.425 88.104,114.188 L87.959,113.709 L82.389,98.29 C82.319,98.073 82.152,97.837 81.84,97.837 L79.88,97.837 C79.57,97.837 79.378,98.073 79.308,98.29 L73.76,113.732 L73.615,114.188 C73.615,114.425 73.807,114.568 74.023,114.568 L75.697,114.568 C75.862,114.568 76.076,114.523 76.151,114.235 L77.418,110.649 Z M83.393,108.328 L78.207,108.328 L80.812,100.849 L83.393,108.328 Z M54.465,114.568 C54.777,114.568 55.04,114.329 55.04,114.019 L55.04,101.682 L59.701,114.235 C59.772,114.449 59.893,114.568 60.179,114.568 L61.516,114.568 C61.733,114.568 61.923,114.473 62.02,114.213 L66.608,101.755 L66.608,114.02 C66.608,114.33 66.873,114.569 67.183,114.569 L68.545,114.569 C68.857,114.569 69.096,114.33 69.096,114.02 L69.096,98.41 C69.096,98.098 68.856,97.837 68.545,97.837 L66.035,97.837 C65.82,97.837 65.678,98.003 65.604,98.17 L60.872,110.981 L56.162,98.148 C56.09,98.003 55.946,97.837 55.683,97.837 L53.128,97.837 C52.816,97.837 52.577,98.098 52.577,98.41 L52.577,114.019 C52.577,114.329 52.816,114.568 53.128,114.568 L54.465,114.568 L54.465,114.568 Z M37.947,108.257 L41.294,108.257 L44.281,114.139 C44.402,114.377 44.593,114.568 44.903,114.568 L46.722,114.568 C46.959,114.568 47.103,114.425 47.103,114.188 L46.934,113.709 L43.829,107.828 C46.123,107.133 47.126,105.437 47.126,103.264 L47.126,102.736 C47.126,99.486 44.975,97.837 41.964,97.837 L35.915,97.837 C35.605,97.837 35.366,98.098 35.366,98.41 L35.366,114.019 C35.366,114.329 35.605,114.568 35.915,114.568 L37.373,114.568 C37.683,114.568 37.946,114.329 37.946,114.019 L37.946,108.257 L37.947,108.257 Z M37.947,100.25 L41.796,100.25 C43.278,100.25 44.547,100.921 44.547,102.905 L44.547,103.264 C44.547,105.054 43.278,105.845 41.796,105.845 L37.947,105.845 L37.947,100.25 Z M30.012,98.41 C30.012,98.098 29.75,97.837 29.438,97.837 L20.116,97.837 C19.804,97.837 19.563,98.098 19.563,98.41 L19.563,114.019 C19.563,114.329 19.804,114.568 20.116,114.568 L29.438,114.568 C29.75,114.568 30.012,114.329 30.012,114.019 L30.012,112.728 C30.012,112.393 29.75,112.178 29.438,112.178 L22.146,112.178 L22.146,107.3 L27.908,107.3 C28.218,107.3 28.48,107.063 28.48,106.75 L28.48,105.461 C28.48,105.151 28.217,104.888 27.908,104.888 L22.146,104.888 L22.146,100.249 L29.438,100.249 C29.75,100.249 30.012,100.01 30.012,99.7 L30.012,98.41 Z M11.198,107.972 L11.198,108.928 C11.198,110.34 10.026,112.418 7.517,112.418 C5.389,112.418 3.668,110.866 3.668,108.067 L3.668,104.385 C3.668,101.593 5.366,100.011 7.494,100.011 C9.765,100.011 10.842,101.638 11.03,103.048 C11.104,103.38 11.246,103.55 11.485,103.55 L13.302,103.55 C13.519,103.55 13.661,103.404 13.661,103.168 L13.637,102.833 C13.253,100.107 11.152,97.597 7.494,97.597 C3.837,97.597 1.086,100.274 1.086,104.338 L1.086,108.067 C1.086,111.916 3.501,114.81 7.349,114.81 C9.168,114.81 10.697,114.043 11.413,112.851 L11.413,114.021 C11.413,114.331 11.652,114.57 11.962,114.57 L13.133,114.57 C13.443,114.57 13.683,114.331 13.683,114.021 L13.683,106.182 C13.683,105.869 13.443,105.629 13.133,105.629 L7.755,105.629 C7.443,105.629 7.206,105.869 7.206,106.182 L7.206,107.401 C7.206,107.711 7.443,107.974 7.755,107.974 L11.198,107.974 L11.198,107.972 Z" id="Shape"></path>
            <path d="M469.234,56.22 C469.971,56.22 470.579,55.612 470.579,54.873 C470.579,50.527 466.973,46.484 460.193,46.484 C452.717,46.484 449.241,49.874 449.241,54.962 C449.241,66.523 464.757,62.741 464.757,68.783 C464.757,71.391 463.365,72.303 459.976,72.303 C455.325,72.303 454.934,69.087 454.761,68.261 C454.632,67.739 454.238,67.09 453.5,67.09 L449.979,67.09 C449.243,67.09 448.634,67.698 448.634,68.438 C448.634,72.522 452.111,77.782 459.977,77.782 C465.539,77.782 471.06,75.433 471.06,68.784 C471.06,56.788 455.544,60.527 455.544,54.963 C455.544,52.571 457.283,51.963 460.107,51.963 C462.934,51.963 463.845,53.57 464.28,55.005 C464.498,55.83 464.932,56.221 465.668,56.221 L469.234,56.221 L469.234,56.22 Z M435.286,46.92 C434.549,46.92 433.941,47.528 433.941,48.266 L433.941,65.477 C433.941,69.955 431.768,71.867 428.68,71.867 C425.593,71.867 423.509,69.955 423.509,65.477 L423.509,48.266 C423.509,47.528 422.901,46.92 422.16,46.92 L418.554,46.92 C417.815,46.92 417.208,47.528 417.208,48.266 L417.208,65.477 C417.208,73.082 421.814,77.78 428.681,77.78 C435.549,77.78 440.244,73.082 440.244,65.477 L440.244,48.266 C440.244,47.528 439.635,46.92 438.896,46.92 L435.286,46.92 Z M392.096,71.347 L403.395,71.347 L405.134,76.606 C405.222,76.956 405.569,77.346 406.265,77.346 L410.612,77.346 C411.175,77.346 411.61,76.956 411.61,76.39 C411.61,76.084 411.305,75.344 411.263,75.215 L401.702,47.877 C401.571,47.486 401.135,46.92 400.397,46.92 L395.527,46.92 C394.789,46.92 394.352,47.485 394.222,47.877 L384.402,75.564 C384.314,75.825 384.182,76.129 384.182,76.39 C384.182,76.956 384.619,77.346 385.18,77.346 L389.312,77.346 C389.658,77.346 390.182,77.171 390.355,76.563 L392.096,71.347 Z M401.57,65.695 L394.007,65.695 L397.875,54.265 L401.57,65.695 Z M376.154,77.346 C376.892,77.346 377.502,76.736 377.502,76.001 L377.502,48.267 C377.502,47.529 376.892,46.921 376.154,46.921 L372.546,46.921 C371.808,46.921 371.201,47.529 371.201,48.267 L371.201,59.135 L360.897,59.135 L360.897,48.267 C360.897,47.529 360.289,46.921 359.552,46.921 L355.944,46.921 C355.206,46.921 354.596,47.529 354.596,48.267 L354.596,76 C354.596,76.735 355.206,77.345 355.944,77.345 L359.552,77.345 C360.288,77.345 360.897,76.735 360.897,76 L360.897,65.044 L371.201,65.044 L371.201,76 C371.201,76.735 371.808,77.345 372.546,77.345 L376.154,77.345 L376.154,77.346 Z M329.561,66.827 L334.211,66.827 L338.902,76.301 C339.167,76.824 339.599,77.346 340.339,77.346 L344.729,77.346 C345.295,77.346 345.685,76.956 345.685,76.39 C345.685,75.954 345.468,75.608 345.25,75.173 L340.293,65.695 C344.163,64.35 345.684,61.393 345.684,57.352 L345.684,56.048 C345.684,49.963 341.641,46.92 336.296,46.92 L324.602,46.92 C323.864,46.92 323.257,47.528 323.257,48.266 L323.257,76 C323.257,76.735 323.863,77.345 324.602,77.345 L328.21,77.345 C328.95,77.345 329.56,76.735 329.56,76 L329.56,66.827 L329.561,66.827 Z M329.561,52.831 L335.776,52.831 C337.816,52.831 339.382,53.875 339.382,56.611 L339.382,57.219 C339.382,59.873 337.816,60.913 335.776,60.913 L329.561,60.913 L329.561,52.831 Z M314.349,48.266 C314.349,47.528 313.738,46.92 313.001,46.92 L296.484,46.92 C295.747,46.92 295.136,47.528 295.136,48.266 L295.136,76 C295.136,76.735 295.746,77.345 296.484,77.345 L313,77.345 C313.737,77.345 314.348,76.735 314.348,76 L314.348,72.738 C314.348,71.996 313.737,71.434 313,71.434 L301.436,71.434 L301.436,64.871 L310.392,64.871 C311.132,64.871 311.741,64.261 311.741,63.521 L311.741,60.306 C311.741,59.568 311.133,58.958 310.392,58.958 L301.436,58.958 L301.436,52.831 L313,52.831 C313.737,52.831 314.348,52.222 314.348,51.484 L314.348,48.266 L314.349,48.266 Z M270.1,66.827 L274.754,66.827 L279.449,76.301 C279.708,76.824 280.142,77.346 280.879,77.346 L285.27,77.346 C285.836,77.346 286.227,76.956 286.227,76.39 C286.227,75.954 286.01,75.608 285.793,75.173 L280.837,65.695 C284.706,64.35 286.227,61.393 286.227,57.352 L286.227,56.048 C286.227,49.963 282.184,46.92 276.839,46.92 L265.149,46.92 C264.409,46.92 263.799,47.528 263.799,48.266 L263.799,76 C263.799,76.735 264.409,77.345 265.149,77.345 L268.755,77.345 C269.495,77.345 270.1,76.735 270.1,76 L270.1,66.827 L270.1,66.827 Z M270.1,52.831 L276.318,52.831 C278.362,52.831 279.925,53.875 279.925,56.611 L279.925,57.219 C279.925,59.873 278.363,60.913 276.318,60.913 L270.1,60.913 L270.1,52.831 Z M254.889,48.266 C254.889,47.528 254.284,46.92 253.542,46.92 L237.026,46.92 C236.286,46.92 235.678,47.528 235.678,48.266 L235.678,76 C235.678,76.735 236.286,77.345 237.026,77.345 L253.542,77.345 C254.284,77.345 254.889,76.735 254.889,76 L254.889,72.738 C254.889,71.996 254.284,71.434 253.542,71.434 L241.98,71.434 L241.98,64.871 L250.935,64.871 C251.673,64.871 252.281,64.261 252.281,63.521 L252.281,60.306 C252.281,59.568 251.674,58.958 250.935,58.958 L241.98,58.958 L241.98,52.831 L253.542,52.831 C254.284,52.831 254.889,52.222 254.889,51.484 L254.889,48.266 Z M214.293,52.873 C217.467,52.873 220.118,55.265 220.118,59.699 L220.118,64.609 C220.118,69.043 217.467,71.392 214.293,71.392 L209.773,71.392 L209.773,52.873 L214.293,52.873 Z M214.293,77.346 C221.29,77.346 226.55,72.217 226.55,64.609 L226.55,59.61 C226.55,52.005 221.335,46.92 214.293,46.92 L204.819,46.92 C204.078,46.92 203.469,47.528 203.469,48.266 L203.469,76 C203.469,76.735 204.077,77.345 204.819,77.345 L214.293,77.345 L214.293,77.346 Z M188.364,77.346 L191.842,77.346 C192.58,77.346 193.189,76.736 193.189,76.001 L193.189,48.267 C193.189,47.529 192.58,46.921 191.842,46.921 L188.407,46.921 C187.668,46.921 187.061,47.529 187.061,48.267 L187.061,66.089 L176.976,47.965 C176.759,47.572 176.149,46.921 175.412,46.921 L170.675,46.921 C169.936,46.921 169.329,47.529 169.329,48.267 L169.329,76 C169.329,76.735 169.936,77.345 170.675,77.345 L174.107,77.345 C174.847,77.345 175.457,76.735 175.457,76 L175.457,56.611 L186.28,75.78 C187.233,77.434 187.886,77.346 188.364,77.346 L188.364,77.346 Z M143.127,71.347 L154.429,71.347 L156.168,76.606 C156.256,76.956 156.604,77.346 157.297,77.346 L161.644,77.346 C162.21,77.346 162.645,76.956 162.645,76.39 C162.645,76.084 162.339,75.344 162.297,75.215 L152.735,47.877 C152.604,47.486 152.171,46.92 151.432,46.92 L146.563,46.92 C145.825,46.92 145.39,47.485 145.259,47.877 L135.438,75.564 C135.351,75.825 135.22,76.129 135.22,76.39 C135.22,76.956 135.653,77.346 136.22,77.346 L140.347,77.346 C140.695,77.346 141.219,77.171 141.392,76.563 L143.127,71.347 Z M152.604,65.695 L145.042,65.695 L148.912,54.265 L152.604,65.695 Z M108.214,76.301 L113.038,56.179 L118.036,76.301 C118.167,76.779 118.6,77.346 119.34,77.346 L123.73,77.346 C124.468,77.346 124.903,76.779 125.033,76.301 L132.424,48.789 C132.51,48.442 132.596,48.095 132.596,47.919 C132.596,47.354 132.162,46.92 131.597,46.92 L127.294,46.92 C126.337,46.92 126.034,47.702 125.904,48.266 L121.47,67.609 L116.6,48.266 C116.34,47.181 115.731,46.92 115.211,46.92 L111.081,46.92 C110.43,46.92 109.908,47.354 109.691,48.266 L104.867,67.609 L100.388,48.266 C100.127,47.092 99.433,46.92 98.998,46.92 L94.607,46.92 C94.043,46.92 93.651,47.354 93.651,47.919 C93.651,48.137 93.825,48.746 93.956,49.222 L101.345,76.301 C101.52,76.999 102.086,77.346 102.649,77.346 L106.909,77.346 C107.647,77.346 108.081,76.779 108.214,76.301 L108.214,76.301 Z M85.351,56.22 C86.089,56.22 86.699,55.612 86.699,54.873 C86.699,50.527 83.091,46.484 76.309,46.484 C68.833,46.484 65.356,49.874 65.356,54.962 C65.356,66.523 80.873,62.741 80.873,68.783 C80.873,71.391 79.484,72.303 76.095,72.303 C71.443,72.303 71.053,69.087 70.877,68.261 C70.746,67.739 70.356,67.09 69.617,67.09 L66.096,67.09 C65.357,67.09 64.748,67.698 64.748,68.438 C64.748,72.522 68.225,77.782 76.095,77.782 C81.657,77.782 87.177,75.433 87.177,68.784 C87.177,56.788 71.661,60.527 71.661,54.963 C71.661,52.571 73.397,51.963 76.224,51.963 C79.048,51.963 79.962,53.57 80.396,55.005 C80.613,55.83 81.049,56.221 81.787,56.221 L85.351,56.221 L85.351,56.22 Z M51.406,46.92 C50.664,46.92 50.057,47.528 50.057,48.266 L50.057,65.477 C50.057,69.955 47.883,71.867 44.799,71.867 C41.712,71.867 39.627,69.955 39.627,65.477 L39.627,48.266 C39.627,47.528 39.018,46.92 38.277,46.92 L34.67,46.92 C33.932,46.92 33.322,47.528 33.322,48.266 L33.322,65.477 C33.322,73.082 37.931,77.78 44.799,77.78 C51.666,77.78 56.36,73.082 56.36,65.477 L56.36,48.266 C56.36,47.528 55.751,46.92 55.013,46.92 L51.406,46.92 Z M8.211,71.347 L19.512,71.347 L21.252,76.606 C21.336,76.956 21.685,77.346 22.381,77.346 L26.728,77.346 C27.293,77.346 27.726,76.956 27.726,76.39 C27.726,76.084 27.424,75.344 27.38,75.215 L17.817,47.877 C17.687,47.486 17.251,46.92 16.512,46.92 L11.646,46.92 C10.906,46.92 10.472,47.485 10.341,47.877 L0.517,75.564 C0.431,75.825 0.3,76.129 0.3,76.39 C0.3,76.956 0.735,77.346 1.3,77.346 L5.429,77.346 C5.777,77.346 6.297,77.171 6.472,76.563 L8.211,71.347 Z M17.687,65.695 L10.124,65.695 L13.992,54.265 L17.687,65.695 Z" id="Shape"></path>
            <path d="M264.423,9.942 C265.163,9.942 265.77,9.334 265.77,8.595 C265.77,4.248 262.162,0.205 255.384,0.205 C247.905,0.205 244.428,3.597 244.428,8.682 C244.428,20.244 259.947,16.463 259.947,22.504 C259.947,25.11 258.555,26.025 255.167,26.025 C250.516,26.025 250.123,22.808 249.949,21.982 C249.817,21.46 249.428,20.81 248.69,20.81 L245.171,20.81 C244.429,20.81 243.821,21.418 243.821,22.158 C243.821,26.243 247.298,31.503 255.167,31.503 C260.729,31.503 266.249,29.154 266.249,22.505 C266.249,10.508 250.733,14.246 250.733,8.683 C250.733,6.293 252.471,5.685 255.296,5.685 C258.121,5.685 259.034,7.291 259.472,8.726 C259.684,9.553 260.12,9.943 260.858,9.943 L264.423,9.943 L264.423,9.942 Z M236.519,1.988 C236.519,1.25 235.911,0.641 235.172,0.641 L218.653,0.641 C217.914,0.641 217.307,1.25 217.307,1.988 L217.307,29.72 C217.307,30.458 217.914,31.066 218.653,31.066 L235.172,31.066 C235.91,31.066 236.519,30.459 236.519,29.72 L236.519,26.46 C236.519,25.722 235.911,25.155 235.172,25.155 L223.611,25.155 L223.611,18.591 L232.563,18.591 C233.302,18.591 233.91,17.983 233.91,17.244 L233.91,14.026 C233.91,13.288 233.302,12.679 232.563,12.679 L223.611,12.679 L223.611,6.551 L235.172,6.551 C235.91,6.551 236.519,5.943 236.519,5.204 L236.519,1.988 Z M205.68,31.066 C206.418,31.066 207.026,30.459 207.026,29.72 L207.026,1.988 C207.026,1.25 206.418,0.641 205.68,0.641 L202.073,0.641 C201.334,0.641 200.724,1.25 200.724,1.988 L200.724,12.856 L190.423,12.856 L190.423,1.988 C190.423,1.25 189.814,0.641 189.075,0.641 L185.468,0.641 C184.73,0.641 184.119,1.25 184.119,1.988 L184.119,29.72 C184.119,30.458 184.73,31.066 185.468,31.066 L189.075,31.066 C189.813,31.066 190.423,30.459 190.423,29.72 L190.423,18.766 L200.724,18.766 L200.724,29.72 C200.724,30.458 201.333,31.066 202.073,31.066 L205.68,31.066 Z M170.346,20.202 C169.477,20.202 169.304,20.895 169.218,21.548 C169,23.635 167.435,25.589 164.263,25.589 C161.088,25.589 158.525,23.244 158.525,18.767 L158.525,13.029 C158.525,8.553 161.088,6.118 164.263,6.118 C167.434,6.118 168.869,8.247 169.218,10.335 C169.347,11.203 169.826,11.507 170.304,11.507 L174.738,11.507 C175.389,11.507 175.736,11.073 175.694,10.42 C175.346,5.162 171.218,0.205 164.263,0.205 C157.307,0.205 152.223,5.335 152.223,12.941 L152.223,18.767 C152.223,26.373 157.307,31.503 164.263,31.503 C171.218,31.503 175.389,26.373 175.781,21.244 C175.824,20.765 175.434,20.202 174.824,20.202 L170.346,20.202 L170.346,20.202 Z M142.468,9.942 C143.206,9.942 143.815,9.334 143.815,8.595 C143.815,4.248 140.206,0.205 133.427,0.205 C125.95,0.205 122.474,3.597 122.474,8.682 C122.474,20.244 137.99,16.463 137.99,22.504 C137.99,25.11 136.599,26.025 133.209,26.025 C128.558,26.025 128.167,22.808 127.995,21.982 C127.862,21.46 127.471,20.81 126.733,20.81 L123.213,20.81 C122.475,20.81 121.865,21.418 121.865,22.158 C121.865,26.243 125.341,31.503 133.209,31.503 C138.772,31.503 144.293,29.154 144.293,22.505 C144.293,10.508 128.776,14.246 128.776,8.683 C128.776,6.293 130.516,5.685 133.34,5.685 C136.163,5.685 137.078,7.291 137.513,8.726 C137.728,9.553 138.163,9.943 138.903,9.943 L142.468,9.943 L142.468,9.942 Z M92.792,5.206 C92.792,5.944 93.4,6.553 94.139,6.553 L101.355,6.553 L101.355,29.721 C101.355,30.459 101.963,31.067 102.704,31.067 L106.311,31.067 C107.05,31.067 107.658,30.46 107.658,29.721 L107.658,6.553 L114.874,6.553 C115.612,6.553 116.221,5.945 116.221,5.206 L116.221,1.988 C116.221,1.25 115.613,0.641 114.874,0.641 L94.139,0.641 C93.401,0.641 92.792,1.25 92.792,1.988 L92.792,5.206 Z M80.45,0.641 C79.712,0.641 79.102,1.25 79.102,1.988 L79.102,19.201 C79.102,23.678 76.929,25.589 73.843,25.589 C70.756,25.589 68.67,23.678 68.67,19.201 L68.67,1.988 C68.67,1.25 68.061,0.641 67.323,0.641 L63.716,0.641 C62.977,0.641 62.369,1.25 62.369,1.988 L62.369,19.201 C62.369,26.808 66.975,31.503 73.843,31.503 C80.71,31.503 85.404,26.809 85.404,19.201 L85.404,1.988 C85.404,1.25 84.797,0.641 84.057,0.641 L80.45,0.641 Z M53.892,1.988 C53.892,1.25 53.284,0.641 52.546,0.641 L36.03,0.641 C35.291,0.641 34.684,1.25 34.684,1.988 L34.684,29.72 C34.684,30.458 35.291,31.066 36.03,31.066 L52.546,31.066 C53.284,31.066 53.892,30.459 53.892,29.72 L53.892,26.46 C53.892,25.722 53.284,25.155 52.546,25.155 L40.984,25.155 L40.984,18.591 L49.939,18.591 C50.677,18.591 51.286,17.983 51.286,17.244 L51.286,14.026 C51.286,13.288 50.677,12.679 49.939,12.679 L40.984,12.679 L40.984,6.551 L52.546,6.551 C53.284,6.551 53.892,5.943 53.892,5.204 L53.892,1.988 Z M13.297,6.597 C16.469,6.597 19.12,8.985 19.12,13.419 L19.12,18.332 C19.12,22.765 16.469,25.111 13.297,25.111 L8.775,25.111 L8.775,6.597 L13.297,6.597 Z M13.297,31.066 C20.295,31.066 25.555,25.937 25.555,18.332 L25.555,13.334 C25.555,5.726 20.339,0.641 13.297,0.641 L3.821,0.641 C3.083,0.641 2.474,1.25 2.474,1.988 L2.474,29.72 C2.474,30.458 3.083,31.066 3.821,31.066 L13.297,31.066 Z" id="Shape"></path>
        </g>
    </g>
</svg>