<?xml version="1.0" encoding="utf-8"?>
<!-- Generator: Adobe Illustrator 16.0.0, SVG Export Plug-In . SVG Version: 6.00 Build 0)  -->
<!DOCTYPE svg PUBLIC "-//W3C//DTD SVG 1.1//EN" "http://www.w3.org/Graphics/SVG/1.1/DTD/svg11.dtd">
<svg version="1.1" id="Ebene_1" xmlns="http://www.w3.org/2000/svg" xmlns:xlink="http://www.w3.org/1999/xlink" x="0px" y="0px"
	 width="470.756px" height="114.604px" viewBox="0 0 470.756 114.604" enable-background="new 0 0 470.756 114.604"
	 xml:space="preserve">
<g>
	<path d="M372.33,108.052h3.345l2.988,5.882c0.119,0.238,0.31,0.429,0.62,0.429h1.82c0.237,0,0.382-0.143,0.382-0.38l-0.167-0.479
		l-3.109-5.881c2.295-0.695,3.3-2.391,3.3-4.564v-0.528c0-3.25-2.151-4.899-5.164-4.899h-6.049c-0.31,0-0.549,0.261-0.549,0.573
		v15.609c0,0.31,0.239,0.549,0.549,0.549h1.458c0.31,0,0.576-0.239,0.576-0.549V108.052z M372.33,100.044h3.848
		c1.483,0,2.75,0.671,2.75,2.655v0.359c0,1.79-1.268,2.581-2.75,2.581h-3.848V100.044z M364.392,98.205
		c0-0.312-0.262-0.573-0.571-0.573h-9.326c-0.31,0-0.55,0.261-0.55,0.573v15.609c0,0.31,0.241,0.549,0.55,0.549h9.326
		c0.31,0,0.571-0.239,0.571-0.549v-1.291c0-0.335-0.262-0.55-0.571-0.55h-7.294v-4.878h5.76c0.313,0,0.577-0.237,0.577-0.55v-1.289
		c0-0.31-0.263-0.573-0.577-0.573h-5.76v-4.639h7.294c0.31,0,0.571-0.239,0.571-0.549V98.205z M336.4,99.496
		c0,0.31,0.237,0.549,0.572,0.549h4.542v13.77c0,0.31,0.241,0.549,0.551,0.549h1.458c0.311,0,0.548-0.239,0.548-0.549v-13.77h4.542
		c0.313,0,0.573-0.239,0.573-0.549v-1.291c0-0.312-0.26-0.573-0.573-0.573h-11.642c-0.335,0-0.572,0.261-0.572,0.573V99.496z
		 M321.626,113.814v-12.118l7.268,12.025c0.382,0.642,0.667,0.642,0.882,0.642h1.317c0.31,0,0.573-0.239,0.573-0.549V98.205
		c0-0.312-0.263-0.573-0.573-0.573h-1.386c-0.31,0-0.573,0.261-0.573,0.573v11.451l-6.982-11.571
		c-0.096-0.169-0.311-0.453-0.645-0.453h-1.841c-0.31,0-0.55,0.261-0.55,0.573v15.609c0,0.31,0.241,0.549,0.55,0.549h1.41
		C321.385,114.363,321.626,114.124,321.626,113.814 M313.761,98.205c0-0.312-0.263-0.573-0.573-0.573h-9.323
		c-0.31,0-0.55,0.261-0.55,0.573v15.609c0,0.31,0.24,0.549,0.55,0.549h9.323c0.31,0,0.573-0.239,0.573-0.549v-1.291
		c0-0.335-0.263-0.55-0.573-0.55h-7.292v-4.878h5.761c0.312,0,0.576-0.237,0.576-0.55v-1.289c0-0.31-0.264-0.573-0.576-0.573h-5.761
		v-4.639h7.292c0.31,0,0.573-0.239,0.573-0.549V98.205z M295.617,108.58c-0.31,0-0.406,0.236-0.454,0.526
		c-0.189,1.744-1.436,3.106-3.491,3.106c-2.104,0-3.799-1.552-3.799-4.351v-3.682c0-2.792,1.696-4.374,3.777-4.374
		c2.078,0,3.25,1.458,3.488,3.037c0.048,0.382,0.238,0.502,0.456,0.502h1.765c0.292,0,0.458-0.17,0.432-0.479
		c-0.286-2.915-2.508-5.473-6.142-5.473c-3.634,0-6.357,2.677-6.357,6.763v3.707c0,4.064,2.746,6.743,6.379,6.743
		c3.611,0,5.956-2.701,6.146-5.593c0-0.219-0.167-0.431-0.384-0.431H295.617z M261.768,113.814v-12.118l7.268,12.025
		c0.379,0.642,0.666,0.642,0.883,0.642h1.315c0.31,0,0.571-0.239,0.571-0.549V98.205c0-0.312-0.262-0.573-0.571-0.573h-1.387
		c-0.312,0-0.574,0.261-0.574,0.573v11.451l-6.981-11.571c-0.097-0.169-0.312-0.453-0.644-0.453h-1.84
		c-0.313,0-0.551,0.261-0.551,0.573v15.609c0,0.31,0.238,0.549,0.551,0.549h1.409C261.528,114.363,261.768,114.124,261.768,113.814
		 M243.478,104.179c0-2.792,1.697-4.374,3.78-4.374c2.078,0,3.825,1.582,3.825,4.374v3.682c0,2.799-1.747,4.351-3.802,4.351
		c-2.106,0-3.803-1.552-3.803-4.351V104.179z M240.898,107.861c0,4.064,2.749,6.743,6.383,6.743c3.608,0,6.382-2.679,6.382-6.743
		v-3.729c0-4.064-2.774-6.741-6.405-6.741c-3.634,0-6.36,2.677-6.36,6.741V107.861z M234.729,114.363
		c0.311,0,0.575-0.239,0.575-0.549V98.205c0-0.312-0.265-0.573-0.575-0.573h-1.458c-0.31,0-0.55,0.261-0.55,0.573v15.609
		c0,0.31,0.24,0.549,0.55,0.549H234.729z M215.177,99.496c0,0.31,0.237,0.549,0.573,0.549h4.543v13.77
		c0,0.31,0.239,0.549,0.549,0.549h1.458c0.312,0,0.551-0.239,0.551-0.549v-13.77h4.542c0.31,0,0.573-0.239,0.573-0.549v-1.291
		c0-0.312-0.263-0.573-0.573-0.573H215.75c-0.336,0-0.573,0.261-0.573,0.573V99.496z M203.007,110.444h6.765l1.268,3.609
		c0.05,0.167,0.192,0.31,0.479,0.31h1.771c0.216,0,0.404-0.143,0.404-0.38l-0.143-0.479l-5.569-15.419
		c-0.074-0.217-0.239-0.453-0.552-0.453h-1.96c-0.31,0-0.502,0.236-0.572,0.453l-5.547,15.442l-0.145,0.456
		c0,0.237,0.192,0.38,0.407,0.38h1.674c0.168,0,0.384-0.045,0.455-0.333L203.007,110.444z M208.983,108.123h-5.189l2.607-7.479
		L208.983,108.123z M186.558,108.052h3.347l2.986,5.882c0.122,0.238,0.31,0.429,0.623,0.429h1.816c0.238,0,0.382-0.143,0.382-0.38
		l-0.167-0.479l-3.108-5.881c2.296-0.695,3.3-2.391,3.3-4.564v-0.528c0-3.25-2.153-4.899-5.163-4.899h-6.048
		c-0.313,0-0.553,0.261-0.553,0.573v15.609c0,0.31,0.24,0.549,0.553,0.549h1.458c0.31,0,0.574-0.239,0.574-0.549V108.052z
		 M186.558,100.044h3.849c1.482,0,2.747,0.671,2.747,2.655v0.359c0,1.79-1.265,2.581-2.747,2.581h-3.849V100.044z M175.609,107.767
		v0.956c0,1.412-1.172,3.49-3.681,3.49c-2.128,0-3.849-1.552-3.849-4.351v-3.682c0-2.792,1.696-4.374,3.826-4.374
		c2.271,0,3.344,1.627,3.536,3.037c0.072,0.332,0.216,0.502,0.455,0.502h1.817c0.214,0,0.359-0.146,0.359-0.382l-0.024-0.335
		c-0.383-2.726-2.485-5.236-6.142-5.236c-3.66,0-6.409,2.677-6.409,6.741v3.729c0,3.849,2.415,6.743,6.264,6.743
		c1.815,0,3.348-0.767,4.064-1.959v1.17c0,0.31,0.239,0.549,0.549,0.549h1.172c0.31,0,0.549-0.239,0.549-0.549v-7.839
		c0-0.313-0.239-0.553-0.549-0.553h-5.379c-0.312,0-0.551,0.24-0.551,0.553v1.219c0,0.31,0.239,0.573,0.551,0.573H175.609z
		 M159.33,114.363c0.31,0,0.572-0.239,0.572-0.549V98.205c0-0.312-0.262-0.573-0.572-0.573h-1.458c-0.312,0-0.551,0.261-0.551,0.573
		v15.609c0,0.31,0.239,0.549,0.551,0.549H159.33z M136.262,114.363c0.31,0,0.574-0.239,0.574-0.549v-12.337l4.662,12.553
		c0.071,0.214,0.192,0.333,0.479,0.333h1.337c0.215,0,0.407-0.095,0.501-0.355l4.59-12.458v12.265c0,0.31,0.262,0.549,0.576,0.549
		h1.36c0.314,0,0.553-0.239,0.553-0.549V98.205c0-0.312-0.239-0.573-0.553-0.573h-2.51c-0.215,0-0.36,0.166-0.43,0.333
		l-4.731,12.811l-4.711-12.833c-0.071-0.145-0.215-0.311-0.478-0.311h-2.557c-0.313,0-0.551,0.261-0.551,0.573v15.609
		c0,0.31,0.237,0.549,0.551,0.549H136.262z M129.018,98.205c0-0.312-0.262-0.573-0.574-0.573h-9.324
		c-0.31,0-0.549,0.261-0.549,0.573v15.609c0,0.31,0.239,0.549,0.549,0.549h9.324c0.312,0,0.574-0.239,0.574-0.549v-1.291
		c0-0.335-0.262-0.55-0.574-0.55h-7.291v-4.878h5.762c0.311,0,0.573-0.237,0.573-0.55v-1.289c0-0.31-0.262-0.573-0.573-0.573h-5.762
		v-4.639h7.291c0.312,0,0.574-0.239,0.574-0.549V98.205z M94.522,113.814v-12.118l7.269,12.025c0.384,0.642,0.669,0.642,0.885,0.642
		h1.313c0.31,0,0.573-0.239,0.573-0.549V98.205c0-0.312-0.263-0.573-0.573-0.573h-1.387c-0.31,0-0.572,0.261-0.572,0.573v11.451
		l-6.982-11.571c-0.095-0.169-0.31-0.453-0.644-0.453h-1.841c-0.311,0-0.549,0.261-0.549,0.573v15.609
		c0,0.31,0.238,0.549,0.549,0.549h1.41C94.284,114.363,94.522,114.124,94.522,113.814 M77.118,110.444h6.765l1.266,3.609
		c0.047,0.167,0.192,0.31,0.479,0.31h1.769c0.215,0,0.407-0.143,0.407-0.38l-0.145-0.479l-5.57-15.419
		c-0.07-0.217-0.237-0.453-0.549-0.453h-1.96c-0.31,0-0.502,0.236-0.572,0.453l-5.547,15.442l-0.145,0.456
		c0,0.237,0.192,0.38,0.408,0.38h1.674c0.165,0,0.379-0.045,0.454-0.333L77.118,110.444z M83.092,108.123h-5.186l2.605-7.479
		L83.092,108.123z M54.165,114.363c0.312,0,0.575-0.239,0.575-0.549v-12.337l4.661,12.553c0.071,0.214,0.192,0.333,0.478,0.333
		h1.337c0.217,0,0.407-0.095,0.504-0.355l4.588-12.458v12.265c0,0.31,0.265,0.549,0.575,0.549h1.362
		c0.312,0,0.551-0.239,0.551-0.549V98.205c0-0.312-0.24-0.573-0.551-0.573h-2.51c-0.215,0-0.357,0.166-0.431,0.333l-4.732,12.811
		l-4.71-12.833c-0.072-0.145-0.216-0.311-0.479-0.311h-2.557c-0.312,0-0.551,0.261-0.551,0.573v15.609
		c0,0.31,0.239,0.549,0.551,0.549H54.165z M37.646,108.052h3.347l2.987,5.882c0.121,0.238,0.312,0.429,0.622,0.429h1.819
		c0.237,0,0.381-0.143,0.381-0.38l-0.169-0.479l-3.105-5.881c2.294-0.695,3.297-2.391,3.297-4.564v-0.528
		c0-3.25-2.151-4.899-5.162-4.899h-6.049c-0.31,0-0.549,0.261-0.549,0.573v15.609c0,0.31,0.239,0.549,0.549,0.549h1.458
		c0.31,0,0.573-0.239,0.573-0.549V108.052z M37.646,100.044h3.849c1.482,0,2.751,0.671,2.751,2.655v0.359
		c0,1.79-1.269,2.581-2.751,2.581h-3.849V100.044z M29.711,98.205c0-0.312-0.262-0.573-0.574-0.573h-9.322
		c-0.312,0-0.553,0.261-0.553,0.573v15.609c0,0.31,0.241,0.549,0.553,0.549h9.322c0.312,0,0.574-0.239,0.574-0.549v-1.291
		c0-0.335-0.262-0.55-0.574-0.55h-7.292v-4.878h5.762c0.31,0,0.572-0.237,0.572-0.55v-1.289c0-0.31-0.263-0.573-0.572-0.573h-5.762
		v-4.639h7.292c0.312,0,0.574-0.239,0.574-0.549V98.205z M10.897,107.767v0.956c0,1.412-1.172,3.49-3.681,3.49
		c-2.128,0-3.849-1.552-3.849-4.351v-3.682c0-2.792,1.698-4.374,3.826-4.374c2.271,0,3.348,1.627,3.536,3.037
		c0.074,0.332,0.216,0.502,0.455,0.502H13c0.217,0,0.359-0.146,0.359-0.382l-0.024-0.335c-0.384-2.726-2.485-5.236-6.143-5.236
		c-3.657,0-6.408,2.677-6.408,6.741v3.729c0,3.849,2.415,6.743,6.263,6.743c1.819,0,3.348-0.767,4.064-1.959v1.17
		c0,0.31,0.239,0.549,0.549,0.549h1.171c0.31,0,0.55-0.239,0.55-0.549v-7.839c0-0.313-0.24-0.553-0.55-0.553H7.455
		c-0.312,0-0.549,0.24-0.549,0.553v1.219c0,0.31,0.237,0.573,0.549,0.573H10.897z"/>
	<path d="M468.933,56.015c0.737,0,1.345-0.608,1.345-1.347c0-4.346-3.606-8.389-10.386-8.389c-7.476,0-10.952,3.39-10.952,8.478
		c0,11.561,15.516,7.779,15.516,13.821c0,2.608-1.392,3.52-4.781,3.52c-4.651,0-5.042-3.216-5.215-4.042
		c-0.129-0.522-0.523-1.171-1.261-1.171h-3.521c-0.736,0-1.345,0.608-1.345,1.348c0,4.084,3.477,9.344,11.343,9.344
		c5.562,0,11.083-2.349,11.083-8.998c0-11.996-15.516-8.257-15.516-13.821c0-2.392,1.739-3,4.563-3c2.827,0,3.738,1.607,4.173,3.042
		c0.218,0.825,0.652,1.216,1.388,1.216H468.933z M434.985,46.715c-0.737,0-1.345,0.608-1.345,1.346v17.211
		c0,4.478-2.173,6.39-5.261,6.39c-3.087,0-5.171-1.912-5.171-6.39V48.061c0-0.738-0.608-1.346-1.349-1.346h-3.606
		c-0.739,0-1.346,0.608-1.346,1.346v17.211c0,7.605,4.606,12.303,11.473,12.303c6.868,0,11.563-4.698,11.563-12.303V48.061
		c0-0.738-0.609-1.346-1.348-1.346H434.985z M391.795,71.142h11.299l1.739,5.259c0.088,0.35,0.435,0.74,1.131,0.74h4.347
		c0.563,0,0.998-0.39,0.998-0.956c0-0.306-0.305-1.046-0.347-1.175l-9.561-27.338c-0.131-0.391-0.567-0.957-1.305-0.957h-4.87
		c-0.738,0-1.175,0.565-1.305,0.957l-9.82,27.687c-0.088,0.261-0.22,0.565-0.22,0.826c0,0.566,0.437,0.956,0.998,0.956h4.132
		c0.346,0,0.87-0.175,1.043-0.783L391.795,71.142z M401.27,65.49h-7.563l3.868-11.43L401.27,65.49z M375.854,77.141
		c0.738,0,1.348-0.61,1.348-1.345V48.061c0-0.738-0.61-1.346-1.348-1.346h-3.608c-0.738,0-1.345,0.608-1.345,1.346v10.868h-10.304
		V48.061c0-0.738-0.608-1.346-1.345-1.346h-3.608c-0.738,0-1.348,0.608-1.348,1.346v27.734c0,0.735,0.61,1.345,1.348,1.345h3.608
		c0.736,0,1.345-0.61,1.345-1.345V64.839H370.9v10.956c0,0.735,0.607,1.345,1.345,1.345H375.854z M329.26,66.622h4.65l4.691,9.474
		c0.265,0.523,0.697,1.045,1.437,1.045h4.39c0.566,0,0.956-0.39,0.956-0.956c0-0.436-0.217-0.782-0.435-1.217l-4.957-9.478
		c3.87-1.345,5.391-4.302,5.391-8.343v-1.304c0-6.085-4.043-9.128-9.388-9.128h-11.694c-0.738,0-1.345,0.608-1.345,1.346v27.734
		c0,0.735,0.606,1.345,1.345,1.345h3.608c0.74,0,1.35-0.61,1.35-1.345V66.622z M329.26,52.626h6.215c2.04,0,3.606,1.044,3.606,3.78
		v0.608c0,2.654-1.566,3.694-3.606,3.694h-6.215V52.626z M314.048,48.061c0-0.738-0.611-1.346-1.348-1.346h-16.517
		c-0.737,0-1.348,0.608-1.348,1.346v27.734c0,0.735,0.61,1.345,1.348,1.345H312.7c0.737,0,1.348-0.61,1.348-1.345v-3.262
		c0-0.742-0.611-1.304-1.348-1.304h-11.564v-6.563h8.956c0.74,0,1.349-0.61,1.349-1.35v-3.215c0-0.738-0.608-1.348-1.349-1.348
		h-8.956v-6.127H312.7c0.737,0,1.348-0.609,1.348-1.347V48.061z M269.799,66.622h4.654l4.695,9.474
		c0.259,0.523,0.693,1.045,1.43,1.045h4.391c0.566,0,0.957-0.39,0.957-0.956c0-0.436-0.217-0.782-0.434-1.217l-4.956-9.478
		c3.869-1.345,5.39-4.302,5.39-8.343v-1.304c0-6.085-4.043-9.128-9.388-9.128h-11.69c-0.74,0-1.35,0.608-1.35,1.346v27.734
		c0,0.735,0.61,1.345,1.35,1.345h3.606c0.74,0,1.345-0.61,1.345-1.345V66.622z M269.799,52.626h6.218
		c2.044,0,3.607,1.044,3.607,3.78v0.608c0,2.654-1.562,3.694-3.607,3.694h-6.218V52.626z M254.588,48.061
		c0-0.738-0.605-1.346-1.347-1.346h-16.516c-0.74,0-1.348,0.608-1.348,1.346v27.734c0,0.735,0.608,1.345,1.348,1.345h16.516
		c0.742,0,1.347-0.61,1.347-1.345v-3.262c0-0.742-0.605-1.304-1.347-1.304h-11.562v-6.563h8.955c0.738,0,1.346-0.61,1.346-1.35
		v-3.215c0-0.738-0.607-1.348-1.346-1.348h-8.955v-6.127h11.562c0.742,0,1.347-0.609,1.347-1.347V48.061z M213.992,52.667
		c3.174,0,5.825,2.392,5.825,6.826v4.91c0,4.434-2.651,6.783-5.825,6.783h-4.52V52.667H213.992z M213.992,77.141
		c6.997,0,12.257-5.129,12.257-12.737v-4.999c0-7.605-5.215-12.69-12.257-12.69h-9.474c-0.741,0-1.35,0.608-1.35,1.346v27.734
		c0,0.735,0.608,1.345,1.35,1.345H213.992z M188.063,77.141h3.478c0.738,0,1.347-0.61,1.347-1.345V48.061
		c0-0.738-0.609-1.346-1.347-1.346h-3.435c-0.739,0-1.346,0.608-1.346,1.346v17.822l-10.085-18.124
		c-0.217-0.393-0.827-1.044-1.564-1.044h-4.737c-0.739,0-1.346,0.608-1.346,1.346v27.734c0,0.735,0.607,1.345,1.346,1.345h3.432
		c0.74,0,1.35-0.61,1.35-1.345V56.406l10.823,19.169C186.932,77.229,187.585,77.141,188.063,77.141 M142.827,71.142h11.302
		l1.739,5.259c0.088,0.35,0.436,0.74,1.129,0.74h4.347c0.566,0,1.001-0.39,1.001-0.956c0-0.306-0.306-1.046-0.348-1.175
		l-9.562-27.338c-0.131-0.391-0.564-0.957-1.303-0.957h-4.869c-0.738,0-1.173,0.565-1.304,0.957l-9.821,27.687
		c-0.087,0.261-0.218,0.565-0.218,0.826c0,0.566,0.433,0.956,1,0.956h4.127c0.348,0,0.872-0.175,1.045-0.783L142.827,71.142z
		 M152.303,65.49h-7.562l3.87-11.43L152.303,65.49z M107.913,76.096l4.824-20.122l4.998,20.122c0.131,0.478,0.564,1.045,1.304,1.045
		h4.39c0.738,0,1.173-0.567,1.303-1.045l7.391-27.512c0.086-0.347,0.172-0.694,0.172-0.87c0-0.565-0.434-0.999-0.999-0.999h-4.303
		c-0.957,0-1.26,0.782-1.39,1.346l-4.434,19.343l-4.87-19.343c-0.26-1.085-0.869-1.346-1.389-1.346h-4.13
		c-0.651,0-1.173,0.434-1.39,1.346l-4.824,19.343l-4.479-19.343c-0.261-1.174-0.955-1.346-1.39-1.346h-4.391
		c-0.564,0-0.956,0.434-0.956,0.999c0,0.218,0.174,0.827,0.305,1.303l7.389,27.079c0.175,0.698,0.741,1.045,1.304,1.045h4.26
		C107.347,77.141,107.78,76.574,107.913,76.096 M85.05,56.015c0.738,0,1.348-0.608,1.348-1.347c0-4.346-3.608-8.389-10.39-8.389
		c-7.476,0-10.953,3.39-10.953,8.478c0,11.561,15.517,7.779,15.517,13.821c0,2.608-1.389,3.52-4.778,3.52
		c-4.652,0-5.042-3.216-5.218-4.042c-0.131-0.522-0.521-1.171-1.26-1.171h-3.521c-0.739,0-1.348,0.608-1.348,1.348
		c0,4.084,3.477,9.344,11.347,9.344c5.562,0,11.082-2.349,11.082-8.998c0-11.996-15.516-8.257-15.516-13.821
		c0-2.392,1.736-3,4.563-3c2.824,0,3.738,1.607,4.172,3.042c0.217,0.825,0.653,1.216,1.391,1.216H85.05z M51.105,46.715
		c-0.742,0-1.349,0.608-1.349,1.346v17.211c0,4.478-2.174,6.39-5.258,6.39c-3.087,0-5.172-1.912-5.172-6.39V48.061
		c0-0.738-0.609-1.346-1.35-1.346H34.37c-0.738,0-1.348,0.608-1.348,1.346v17.211c0,7.605,4.609,12.303,11.477,12.303
		c6.867,0,11.561-4.698,11.561-12.303V48.061c0-0.738-0.609-1.346-1.347-1.346H51.105z M7.911,71.142h11.301l1.74,5.259
		c0.084,0.35,0.433,0.74,1.129,0.74h4.347c0.565,0,0.998-0.39,0.998-0.956c0-0.306-0.302-1.046-0.346-1.175l-9.563-27.338
		c-0.13-0.391-0.566-0.957-1.305-0.957h-4.866c-0.74,0-1.174,0.565-1.305,0.957L0.217,75.358C0.131,75.619,0,75.924,0,76.185
		c0,0.566,0.435,0.956,1,0.956H5.13c0.348,0,0.868-0.175,1.043-0.783L7.911,71.142z M17.386,65.49H9.823l3.868-11.43L17.386,65.49z"
		/>
	<path d="M264.122,9.737c0.74,0,1.347-0.608,1.347-1.347c0-4.347-3.608-8.39-10.386-8.39c-7.479,0-10.956,3.392-10.956,8.477
		c0,11.562,15.519,7.781,15.519,13.822c0,2.606-1.392,3.521-4.78,3.521c-4.651,0-5.044-3.217-5.218-4.043
		c-0.132-0.522-0.521-1.172-1.259-1.172h-3.519c-0.742,0-1.35,0.608-1.35,1.348c0,4.085,3.477,9.345,11.346,9.345
		c5.562,0,11.082-2.349,11.082-8.998c0-11.997-15.516-8.259-15.516-13.822c0-2.39,1.738-2.998,4.563-2.998
		c2.825,0,3.738,1.606,4.176,3.041c0.212,0.827,0.648,1.217,1.386,1.217H264.122z M236.218,1.783c0-0.738-0.608-1.347-1.347-1.347
		h-16.519c-0.739,0-1.346,0.609-1.346,1.347v27.732c0,0.738,0.607,1.346,1.346,1.346h16.519c0.738,0,1.347-0.607,1.347-1.346v-3.26
		c0-0.738-0.608-1.305-1.347-1.305h-11.561v-6.564h8.952c0.739,0,1.347-0.608,1.347-1.347v-3.218c0-0.738-0.608-1.347-1.347-1.347
		h-8.952V6.347h11.561c0.738,0,1.347-0.608,1.347-1.347V1.783z M205.379,30.861c0.738,0,1.346-0.607,1.346-1.346V1.783
		c0-0.738-0.608-1.347-1.346-1.347h-3.607c-0.739,0-1.349,0.609-1.349,1.347v10.868h-10.301V1.783c0-0.738-0.609-1.347-1.348-1.347
		h-3.607c-0.738,0-1.349,0.609-1.349,1.347v27.732c0,0.738,0.611,1.346,1.349,1.346h3.607c0.738,0,1.348-0.607,1.348-1.346V18.562
		h10.301v10.954c0,0.738,0.609,1.346,1.349,1.346H205.379z M170.045,19.997c-0.869,0-1.042,0.693-1.128,1.346
		c-0.218,2.087-1.783,4.041-4.955,4.041c-3.175,0-5.738-2.345-5.738-6.822v-5.738c0-4.476,2.563-6.911,5.738-6.911
		c3.171,0,4.606,2.129,4.955,4.217c0.129,0.868,0.608,1.172,1.086,1.172h4.434c0.651,0,0.998-0.434,0.956-1.087
		C175.045,4.957,170.917,0,163.962,0c-6.956,0-12.04,5.13-12.04,12.736v5.826c0,7.606,5.084,12.736,12.04,12.736
		c6.955,0,11.126-5.13,11.518-10.259c0.043-0.479-0.347-1.042-0.957-1.042H170.045z M142.167,9.737c0.738,0,1.347-0.608,1.347-1.347
		c0-4.347-3.609-8.39-10.388-8.39c-7.477,0-10.953,3.392-10.953,8.477c0,11.562,15.516,7.781,15.516,13.822
		c0,2.606-1.391,3.521-4.781,3.521c-4.651,0-5.042-3.217-5.214-4.043c-0.133-0.522-0.524-1.172-1.262-1.172h-3.52
		c-0.738,0-1.348,0.608-1.348,1.348c0,4.085,3.476,9.345,11.344,9.345c5.563,0,11.084-2.349,11.084-8.998
		c0-11.997-15.517-8.259-15.517-13.822c0-2.39,1.74-2.998,4.564-2.998c2.823,0,3.738,1.606,4.173,3.041
		c0.215,0.827,0.65,1.217,1.39,1.217H142.167z M92.491,5c0,0.738,0.608,1.347,1.347,1.347h7.216v23.168
		c0,0.738,0.608,1.346,1.349,1.346h3.607c0.739,0,1.347-0.607,1.347-1.346V6.347h7.216c0.738,0,1.347-0.608,1.347-1.347V1.783
		c0-0.738-0.608-1.347-1.347-1.347H93.838c-0.738,0-1.347,0.609-1.347,1.347V5z M80.149,0.436c-0.738,0-1.348,0.609-1.348,1.347
		v17.213c0,4.477-2.173,6.388-5.259,6.388c-3.087,0-5.173-1.911-5.173-6.388V1.783c0-0.738-0.609-1.347-1.347-1.347h-3.607
		c-0.739,0-1.347,0.609-1.347,1.347v17.213c0,7.607,4.606,12.302,11.474,12.302c6.867,0,11.561-4.694,11.561-12.302V1.783
		c0-0.738-0.607-1.347-1.347-1.347H80.149z M53.591,1.783c0-0.738-0.608-1.347-1.346-1.347H35.729c-0.739,0-1.346,0.609-1.346,1.347
		v27.732c0,0.738,0.607,1.346,1.346,1.346h16.516c0.738,0,1.346-0.607,1.346-1.346v-3.26c0-0.738-0.608-1.305-1.346-1.305H40.683
		v-6.564h8.955c0.738,0,1.347-0.608,1.347-1.347v-3.218c0-0.738-0.609-1.347-1.347-1.347h-8.955V6.347h11.562
		c0.738,0,1.346-0.608,1.346-1.347V1.783z M12.997,6.392c3.172,0,5.823,2.388,5.823,6.822v4.913c0,4.433-2.651,6.779-5.823,6.779
		H8.475V6.392H12.997z M12.997,30.861c6.998,0,12.258-5.129,12.258-12.734v-4.998c0-7.608-5.216-12.693-12.258-12.693H3.521
		c-0.738,0-1.347,0.609-1.347,1.347v27.732c0,0.738,0.609,1.346,1.347,1.346H12.997z"/>
</g>
<g>
	<path d="M338.721,217.163h1.761l1.574,3.223c0.063,0.13,0.165,0.236,0.327,0.236h0.958c0.126,0,0.201-0.079,0.201-0.208
		c0-0.093-0.038-0.157-0.088-0.263l-1.635-3.223c1.209-0.378,1.738-1.309,1.738-2.5v-0.287c0-1.781-1.135-2.684-2.719-2.684h-3.186
		c-0.163,0-0.289,0.143-0.289,0.313v8.551c0,0.171,0.126,0.301,0.289,0.301h0.769c0.166,0,0.302-0.13,0.302-0.301V217.163z
		 M338.721,212.778h2.028c0.779,0,1.447,0.364,1.447,1.451v0.198c0,0.981-0.668,1.413-1.447,1.413h-2.028V212.778z M334.543,211.769
		c0-0.17-0.139-0.313-0.302-0.313h-4.909c-0.162,0-0.291,0.143-0.291,0.313v8.551c0,0.171,0.128,0.301,0.291,0.301h4.909
		c0.163,0,0.302-0.13,0.302-0.301v-0.708c0-0.181-0.139-0.299-0.302-0.299h-3.84v-2.672h3.036c0.16,0,0.3-0.132,0.3-0.302v-0.706
		c0-0.17-0.141-0.318-0.3-0.318h-3.036v-2.537h3.84c0.163,0,0.302-0.133,0.302-0.304V211.769z M319.804,212.474
		c0,0.17,0.128,0.304,0.304,0.304h2.391v7.542c0,0.171,0.125,0.301,0.288,0.301h0.77c0.162,0,0.291-0.13,0.291-0.301v-7.542h2.391
		c0.161,0,0.299-0.133,0.299-0.304v-0.705c0-0.17-0.139-0.313-0.299-0.313h-6.13c-0.176,0-0.304,0.143-0.304,0.313V212.474z
		 M312.025,220.32v-6.639l3.829,6.589c0.201,0.352,0.351,0.352,0.465,0.352h0.693c0.16,0,0.3-0.13,0.3-0.301v-8.551
		c0-0.17-0.141-0.313-0.3-0.313h-0.732c-0.163,0-0.3,0.143-0.3,0.313v6.272l-3.675-6.34c-0.051-0.089-0.165-0.246-0.342-0.246
		h-0.967c-0.163,0-0.29,0.143-0.29,0.313v8.551c0,0.171,0.126,0.301,0.29,0.301h0.74
		C311.898,220.621,312.025,220.491,312.025,220.32 M307.886,211.769c0-0.17-0.141-0.313-0.304-0.313h-4.909
		c-0.162,0-0.288,0.143-0.288,0.313v8.551c0,0.171,0.126,0.301,0.288,0.301h4.909c0.163,0,0.304-0.13,0.304-0.301v-0.708
		c0-0.181-0.141-0.299-0.304-0.299h-3.837v-2.672h3.032c0.163,0,0.302-0.132,0.302-0.302v-0.706c0-0.17-0.139-0.318-0.302-0.318
		h-3.032v-2.537h3.837c0.163,0,0.304-0.133,0.304-0.304V211.769z M298.331,217.452c-0.164,0-0.216,0.13-0.239,0.287
		c-0.1,0.957-0.754,1.706-1.835,1.706c-1.108,0-2.003-0.854-2.003-2.384v-2.018c0-1.532,0.896-2.398,1.989-2.398
		c1.096,0,1.714,0.801,1.838,1.663c0.026,0.21,0.125,0.276,0.24,0.276h0.931c0.149,0,0.239-0.093,0.228-0.263
		c-0.153-1.598-1.324-2.998-3.237-2.998c-1.911,0-3.349,1.465-3.349,3.707v2.03c0,2.225,1.447,3.693,3.363,3.693
		c1.899,0,3.132-1.482,3.233-3.065c0-0.117-0.089-0.236-0.201-0.236H298.331z M280.509,220.32v-6.639l3.828,6.589
		c0.2,0.352,0.353,0.352,0.465,0.352h0.692c0.163,0,0.302-0.13,0.302-0.301v-8.551c0-0.17-0.139-0.313-0.302-0.313h-0.729
		c-0.164,0-0.303,0.143-0.303,0.313v6.272l-3.675-6.34c-0.049-0.089-0.163-0.246-0.339-0.246h-0.971c-0.162,0-0.29,0.143-0.29,0.313
		v8.551c0,0.171,0.128,0.301,0.29,0.301h0.743C280.383,220.621,280.509,220.491,280.509,220.32 M270.88,215.042
		c0-1.532,0.895-2.398,1.988-2.398c1.096,0,2.016,0.866,2.016,2.398v2.018c0,1.53-0.92,2.384-2,2.384
		c-1.109,0-2.003-0.854-2.003-2.384V215.042z M269.521,217.06c0,2.225,1.449,3.693,3.363,3.693c1.897,0,3.359-1.468,3.359-3.693
		v-2.044c0-2.228-1.462-3.693-3.375-3.693c-1.911,0-3.348,1.465-3.348,3.693V217.06z M266.274,220.621
		c0.164,0,0.303-0.13,0.303-0.301v-8.551c0-0.17-0.139-0.313-0.303-0.313h-0.769c-0.162,0-0.289,0.143-0.289,0.313v8.551
		c0,0.171,0.127,0.301,0.289,0.301H266.274z M255.978,212.474c0,0.17,0.126,0.304,0.304,0.304h2.392v7.542
		c0,0.171,0.126,0.301,0.288,0.301h0.768c0.163,0,0.289-0.13,0.289-0.301v-7.542h2.393c0.163,0,0.302-0.133,0.302-0.304v-0.705
		c0-0.17-0.139-0.313-0.302-0.313h-6.13c-0.178,0-0.304,0.143-0.304,0.313V212.474z M249.573,218.474h3.56l0.667,1.98
		c0.026,0.088,0.101,0.167,0.252,0.167h0.93c0.113,0,0.215-0.079,0.215-0.208c0-0.065-0.063-0.211-0.075-0.263l-2.934-8.449
		c-0.038-0.116-0.126-0.246-0.291-0.246h-1.031c-0.165,0-0.265,0.129-0.3,0.246l-2.921,8.463c-0.039,0.092-0.077,0.184-0.077,0.249
		c0,0.129,0.102,0.208,0.215,0.208h0.88c0.091,0,0.202-0.025,0.24-0.185L249.573,218.474z M252.719,217.203h-2.73l1.37-4.098
		L252.719,217.203z M240.91,217.163h1.763l1.575,3.223c0.062,0.13,0.161,0.236,0.325,0.236h0.958c0.125,0,0.201-0.079,0.201-0.208
		c0-0.093-0.04-0.157-0.087-0.263l-1.638-3.223c1.208-0.378,1.737-1.309,1.737-2.5v-0.287c0-1.781-1.131-2.684-2.717-2.684h-3.185
		c-0.165,0-0.29,0.143-0.29,0.313v8.551c0,0.171,0.125,0.301,0.29,0.301h0.768c0.163,0,0.301-0.13,0.301-0.301V217.163z
		 M240.91,212.778h2.027c0.782,0,1.447,0.364,1.447,1.451v0.198c0,0.981-0.665,1.413-1.447,1.413h-2.027V212.778z M235.146,217.005
		v0.525c0,0.773-0.618,1.914-1.938,1.914c-1.12,0-2.027-0.854-2.027-2.384v-2.018c0-1.532,0.894-2.398,2.014-2.398
		c1.197,0,1.763,0.89,1.863,1.663c0.038,0.183,0.114,0.276,0.238,0.276h0.958c0.114,0,0.189-0.079,0.189-0.208
		c0-0.068,0-0.119-0.011-0.185c-0.204-1.492-1.31-2.868-3.236-2.868c-1.925,0-3.373,1.465-3.373,3.693v2.044
		c0,2.108,1.272,3.693,3.298,3.693c0.956,0,1.761-0.419,2.139-1.073v0.64c0,0.171,0.126,0.301,0.291,0.301h0.615
		c0.166,0,0.291-0.13,0.291-0.301v-4.296c0-0.17-0.125-0.299-0.291-0.299h-2.831c-0.163,0-0.288,0.129-0.288,0.299v0.667
		c0,0.171,0.125,0.314,0.288,0.314H235.146z M226.573,220.621c0.166,0,0.304-0.13,0.304-0.301v-8.551
		c0-0.17-0.138-0.313-0.304-0.313h-0.767c-0.163,0-0.289,0.143-0.289,0.313v8.551c0,0.171,0.126,0.301,0.289,0.301H226.573z
		 M214.43,220.621c0.164,0,0.302-0.13,0.302-0.301v-6.759l2.454,6.876c0.038,0.119,0.101,0.185,0.251,0.185h0.704
		c0.115,0,0.215-0.051,0.267-0.195l2.416-6.824v6.718c0,0.171,0.139,0.301,0.302,0.301h0.719c0.164,0,0.289-0.13,0.289-0.301v-8.551
		c0-0.17-0.125-0.313-0.289-0.313h-1.322c-0.114,0-0.189,0.088-0.227,0.18l-2.491,7.023l-2.48-7.036
		c-0.039-0.079-0.113-0.167-0.251-0.167h-1.347c-0.164,0-0.291,0.143-0.291,0.313v8.551c0,0.171,0.126,0.301,0.291,0.301H214.43z
		 M210.617,211.769c0-0.17-0.139-0.313-0.303-0.313h-4.909c-0.162,0-0.29,0.143-0.29,0.313v8.551c0,0.171,0.127,0.301,0.29,0.301
		h4.909c0.164,0,0.303-0.13,0.303-0.301v-0.708c0-0.181-0.139-0.299-0.303-0.299h-3.838v-2.672h3.034
		c0.162,0,0.301-0.132,0.301-0.302v-0.706c0-0.17-0.14-0.318-0.301-0.318h-3.034v-2.537h3.838c0.164,0,0.303-0.133,0.303-0.304
		V211.769z M192.455,220.32v-6.639l3.825,6.589c0.202,0.352,0.353,0.352,0.466,0.352h0.692c0.163,0,0.301-0.13,0.301-0.301v-8.551
		c0-0.17-0.138-0.313-0.301-0.313h-0.729c-0.165,0-0.302,0.143-0.302,0.313v6.272l-3.676-6.34c-0.05-0.089-0.163-0.246-0.339-0.246
		h-0.971c-0.163,0-0.289,0.143-0.289,0.313v8.551c0,0.171,0.126,0.301,0.289,0.301h0.744
		C192.329,220.621,192.455,220.491,192.455,220.32 M183.289,218.474h3.562l0.667,1.98c0.025,0.088,0.101,0.167,0.253,0.167h0.931
		c0.113,0,0.213-0.079,0.213-0.208c0-0.065-0.063-0.211-0.075-0.263l-2.932-8.449c-0.038-0.116-0.125-0.246-0.29-0.246h-1.033
		c-0.164,0-0.264,0.129-0.302,0.246l-2.92,8.463c-0.039,0.092-0.075,0.184-0.075,0.249c0,0.129,0.1,0.208,0.213,0.208h0.881
		c0.089,0,0.203-0.025,0.241-0.185L183.289,218.474z M186.437,217.203h-2.732l1.374-4.098L186.437,217.203z M171.206,220.621
		c0.162,0,0.301-0.13,0.301-0.301v-6.759l2.455,6.876c0.038,0.119,0.102,0.185,0.251,0.185h0.705c0.113,0,0.214-0.051,0.265-0.195
		l2.416-6.824v6.718c0,0.171,0.14,0.301,0.301,0.301h0.72c0.162,0,0.29-0.13,0.29-0.301v-8.551c0-0.17-0.128-0.313-0.29-0.313
		h-1.322c-0.114,0-0.189,0.088-0.228,0.18l-2.492,7.023l-2.479-7.036c-0.039-0.079-0.114-0.167-0.25-0.167h-1.347
		c-0.164,0-0.29,0.143-0.29,0.313v8.551c0,0.171,0.126,0.301,0.29,0.301H171.206z M162.508,217.163h1.762l1.573,3.223
		c0.063,0.13,0.164,0.236,0.328,0.236h0.957c0.125,0,0.2-0.079,0.2-0.208c0-0.093-0.036-0.157-0.087-0.263l-1.636-3.223
		c1.208-0.378,1.737-1.309,1.737-2.5v-0.287c0-1.781-1.134-2.684-2.719-2.684h-3.184c-0.164,0-0.29,0.143-0.29,0.313v8.551
		c0,0.171,0.126,0.301,0.29,0.301h0.767c0.165,0,0.303-0.13,0.303-0.301V217.163z M162.508,212.778h2.026
		c0.78,0,1.447,0.364,1.447,1.451v0.198c0,0.981-0.667,1.413-1.447,1.413h-2.026V212.778z M158.329,211.769
		c0-0.17-0.138-0.313-0.302-0.313h-4.909c-0.164,0-0.29,0.143-0.29,0.313v8.551c0,0.171,0.126,0.301,0.29,0.301h4.909
		c0.164,0,0.302-0.13,0.302-0.301v-0.708c0-0.181-0.138-0.299-0.302-0.299h-3.838v-2.672h3.034c0.163,0,0.301-0.132,0.301-0.302
		v-0.706c0-0.17-0.139-0.318-0.301-0.318h-3.034v-2.537h3.838c0.164,0,0.302-0.133,0.302-0.304V211.769z M148.424,217.005v0.525
		c0,0.773-0.618,1.914-1.938,1.914c-1.12,0-2.027-0.854-2.027-2.384v-2.018c0-1.532,0.893-2.398,2.014-2.398
		c1.196,0,1.763,0.89,1.863,1.663c0.038,0.183,0.113,0.276,0.24,0.276h0.957c0.113,0,0.188-0.079,0.188-0.208
		c0-0.068,0-0.119-0.013-0.185c-0.2-1.492-1.309-2.868-3.235-2.868c-1.925,0-3.372,1.465-3.372,3.693v2.044
		c0,2.108,1.271,3.693,3.296,3.693c0.958,0,1.762-0.419,2.14-1.073v0.64c0,0.171,0.126,0.301,0.29,0.301h0.615
		c0.165,0,0.29-0.13,0.29-0.301v-4.296c0-0.17-0.125-0.299-0.29-0.299h-2.831c-0.163,0-0.29,0.129-0.29,0.299v0.667
		c0,0.171,0.126,0.314,0.29,0.314H148.424z"/>
	<path d="M439.995,193.128c0.388,0,0.708-0.334,0.708-0.738c0-2.381-1.898-4.596-5.47-4.596c-3.935,0-5.766,1.856-5.766,4.644
		c0,6.333,8.17,4.262,8.17,7.572c0,1.427-0.732,1.928-2.518,1.928c-2.45,0-2.654-1.761-2.746-2.215
		c-0.068-0.285-0.274-0.642-0.665-0.642h-1.853c-0.389,0-0.708,0.333-0.708,0.737c0,2.238,1.83,5.121,5.972,5.121
		c2.93,0,5.836-1.286,5.836-4.93c0-6.572-8.169-4.525-8.169-7.572c0-1.311,0.914-1.644,2.402-1.644c1.488,0,1.969,0.881,2.197,1.667
		c0.114,0.452,0.344,0.667,0.733,0.667H439.995z M422.121,188.033c-0.39,0-0.71,0.333-0.71,0.738v9.43c0,2.453-1.142,3.5-2.768,3.5
		c-1.625,0-2.724-1.047-2.724-3.5v-9.43c0-0.404-0.321-0.738-0.71-0.738h-1.898c-0.391,0-0.708,0.333-0.708,0.738v9.43
		c0,4.167,2.423,6.74,6.04,6.74c3.615,0,6.088-2.572,6.088-6.74v-9.43c0-0.404-0.321-0.738-0.711-0.738H422.121z M399.38,201.416
		h5.948l0.917,2.88c0.044,0.191,0.228,0.405,0.596,0.405h2.288c0.297,0,0.526-0.214,0.526-0.524c0-0.165-0.16-0.571-0.183-0.643
		l-5.032-14.979c-0.071-0.215-0.3-0.523-0.689-0.523h-2.562c-0.39,0-0.621,0.308-0.689,0.523l-5.171,15.169
		c-0.045,0.144-0.113,0.308-0.113,0.452c0,0.31,0.229,0.524,0.525,0.524h2.173c0.184,0,0.458-0.095,0.551-0.429L399.38,201.416z
		 M404.368,198.319h-3.981l2.035-6.262L404.368,198.319z M390.987,204.702c0.389,0,0.71-0.333,0.71-0.739v-15.191
		c0-0.404-0.321-0.738-0.71-0.738h-1.899c-0.39,0-0.709,0.333-0.709,0.738v5.954h-5.424v-5.954c0-0.404-0.32-0.738-0.709-0.738
		h-1.898c-0.391,0-0.712,0.333-0.712,0.738v15.191c0,0.406,0.321,0.739,0.712,0.739h1.898c0.389,0,0.709-0.333,0.709-0.739v-6h5.424
		v6c0,0.406,0.319,0.739,0.709,0.739H390.987z M366.454,198.938h2.45l2.47,5.191c0.14,0.287,0.369,0.572,0.756,0.572h2.311
		c0.3,0,0.504-0.214,0.504-0.524c0-0.237-0.115-0.43-0.229-0.667l-2.61-5.192c2.038-0.738,2.838-2.356,2.838-4.571v-0.715
		c0-3.333-2.128-5-4.944-5h-6.154c-0.39,0-0.711,0.333-0.711,0.738v15.191c0,0.406,0.321,0.739,0.711,0.739h1.899
		c0.389,0,0.708-0.333,0.708-0.739V198.938z M366.454,191.27h3.274c1.073,0,1.897,0.572,1.897,2.074v0.333
		c0,1.453-0.824,2.022-1.897,2.022h-3.274V191.27z M358.445,188.771c0-0.404-0.32-0.738-0.709-0.738h-8.697
		c-0.39,0-0.707,0.333-0.707,0.738v15.191c0,0.406,0.317,0.739,0.707,0.739h8.697c0.389,0,0.709-0.333,0.709-0.739v-1.785
		c0-0.405-0.32-0.713-0.709-0.713h-6.087v-3.597h4.713c0.388,0,0.709-0.332,0.709-0.739v-1.762c0-0.405-0.321-0.738-0.709-0.738
		h-4.713v-3.359h6.087c0.389,0,0.709-0.332,0.709-0.738V188.771z M335.149,198.938h2.447l2.475,5.191
		c0.135,0.287,0.364,0.572,0.754,0.572h2.312c0.296,0,0.5-0.214,0.5-0.524c0-0.237-0.112-0.43-0.228-0.667l-2.606-5.192
		c2.034-0.738,2.834-2.356,2.834-4.571v-0.715c0-3.333-2.125-5-4.939-5h-6.158c-0.392,0-0.708,0.333-0.708,0.738v15.191
		c0,0.406,0.316,0.739,0.708,0.739h1.898c0.389,0,0.71-0.333,0.71-0.739V198.938z M335.149,191.27h3.273
		c1.076,0,1.898,0.572,1.898,2.074v0.333c0,1.453-0.822,2.022-1.898,2.022h-3.273V191.27z M327.14,188.771
		c0-0.404-0.32-0.738-0.71-0.738h-8.696c-0.389,0-0.709,0.333-0.709,0.738v15.191c0,0.406,0.32,0.739,0.709,0.739h8.696
		c0.39,0,0.71-0.333,0.71-0.739v-1.785c0-0.405-0.32-0.713-0.71-0.713h-6.088v-3.597h4.715c0.39,0,0.71-0.332,0.71-0.739v-1.762
		c0-0.405-0.32-0.738-0.71-0.738h-4.715v-3.359h6.088c0.39,0,0.71-0.332,0.71-0.738V188.771z M305.765,191.295
		c1.669,0,3.068,1.31,3.068,3.738v2.692c0,2.429-1.399,3.713-3.068,3.713h-2.38v-10.143H305.765z M305.765,204.702
		c3.687,0,6.453-2.809,6.453-6.977v-2.738c0-4.168-2.746-6.954-6.453-6.954h-4.988c-0.388,0-0.709,0.333-0.709,0.738v15.191
		c0,0.406,0.321,0.739,0.709,0.739H305.765z M292.113,204.702h1.831c0.391,0,0.711-0.333,0.711-0.739v-15.191
		c0-0.404-0.321-0.738-0.711-0.738h-1.807c-0.388,0-0.708,0.333-0.708,0.738v9.763l-5.312-9.93c-0.113-0.214-0.433-0.57-0.823-0.57
		h-2.496c-0.388,0-0.708,0.333-0.708,0.738v15.191c0,0.406,0.32,0.739,0.708,0.739h1.81c0.387,0,0.708-0.333,0.708-0.739v-10.619
		l5.7,10.5C291.517,204.75,291.861,204.702,292.113,204.702 M268.296,201.416h5.951l0.916,2.88c0.044,0.191,0.228,0.405,0.595,0.405
		h2.288c0.296,0,0.524-0.214,0.524-0.524c0-0.165-0.157-0.571-0.182-0.643l-5.034-14.979c-0.068-0.215-0.297-0.523-0.685-0.523
		h-2.566c-0.388,0-0.616,0.308-0.685,0.523l-5.172,15.169c-0.046,0.144-0.115,0.308-0.115,0.452c0,0.31,0.229,0.524,0.526,0.524
		h2.173c0.183,0,0.459-0.095,0.551-0.429L268.296,201.416z M273.286,198.319h-3.983l2.038-6.262L273.286,198.319z M249.912,204.129
		l2.54-11.024l2.634,11.024c0.068,0.262,0.296,0.572,0.687,0.572h2.312c0.389,0,0.617-0.31,0.686-0.572l3.891-15.073
		c0.048-0.192,0.092-0.382,0.092-0.477c0-0.31-0.228-0.546-0.528-0.546h-2.263c-0.504,0-0.664,0.428-0.731,0.738l-2.334,10.597
		l-2.566-10.597c-0.136-0.595-0.456-0.738-0.731-0.738h-2.175c-0.344,0-0.616,0.237-0.731,0.738l-2.54,10.597l-2.356-10.597
		c-0.139-0.645-0.504-0.738-0.733-0.738h-2.311c-0.299,0-0.505,0.237-0.505,0.546c0,0.12,0.093,0.454,0.161,0.714l3.889,14.836
		c0.092,0.381,0.39,0.572,0.688,0.572h2.244C249.616,204.702,249.845,204.392,249.912,204.129 M237.876,193.128
		c0.389,0,0.708-0.334,0.708-0.738c0-2.381-1.897-4.596-5.468-4.596c-3.937,0-5.767,1.856-5.767,4.644
		c0,6.333,8.168,4.262,8.168,7.572c0,1.427-0.731,1.928-2.518,1.928c-2.447,0-2.653-1.761-2.744-2.215
		c-0.068-0.285-0.275-0.642-0.664-0.642h-1.855c-0.388,0-0.709,0.333-0.709,0.737c0,2.238,1.831,5.121,5.972,5.121
		c2.931,0,5.837-1.286,5.837-4.93c0-6.572-8.17-4.525-8.17-7.572c0-1.311,0.915-1.644,2.403-1.644c1.487,0,1.968,0.881,2.196,1.667
		c0.115,0.452,0.344,0.667,0.733,0.667H237.876z M220.003,188.033c-0.389,0-0.71,0.333-0.71,0.738v9.43c0,2.453-1.145,3.5-2.769,3.5
		c-1.626,0-2.723-1.047-2.723-3.5v-9.43c0-0.404-0.321-0.738-0.71-0.738h-1.898c-0.391,0-0.711,0.333-0.711,0.738v9.43
		c0,4.167,2.427,6.74,6.043,6.74c3.616,0,6.087-2.572,6.087-6.74v-9.43c0-0.404-0.322-0.738-0.709-0.738H220.003z M197.262,201.416
		h5.949l0.917,2.88c0.045,0.191,0.228,0.405,0.594,0.405h2.289c0.296,0,0.526-0.214,0.526-0.524c0-0.165-0.16-0.571-0.183-0.643
		l-5.036-14.979c-0.067-0.215-0.296-0.523-0.685-0.523h-2.565c-0.387,0-0.617,0.308-0.684,0.523l-5.174,15.169
		c-0.045,0.144-0.114,0.308-0.114,0.452c0,0.31,0.229,0.524,0.527,0.524h2.172c0.183,0,0.459-0.095,0.549-0.429L197.262,201.416z
		 M202.25,198.319h-3.983l2.038-6.262L202.25,198.319z"/>
	<path d="M183.618,193.13c0.39,0,0.71-0.336,0.71-0.742c0-2.379-1.899-4.594-5.47-4.594c-3.936,0-5.766,1.856-5.766,4.644
		c0,6.333,8.168,4.262,8.168,7.572c0,1.429-0.732,1.928-2.516,1.928c-2.449,0-2.655-1.761-2.746-2.215
		c-0.07-0.286-0.276-0.644-0.665-0.644h-1.853c-0.389,0-0.709,0.334-0.709,0.741c0,2.236,1.829,5.119,5.973,5.119
		c2.929,0,5.835-1.288,5.835-4.93c0-6.572-8.169-4.525-8.169-7.572c0-1.311,0.915-1.644,2.401-1.644
		c1.488,0,1.969,0.882,2.197,1.666c0.114,0.455,0.345,0.67,0.733,0.67H183.618z M168.926,188.771c0-0.406-0.321-0.74-0.709-0.74
		h-8.696c-0.389,0-0.709,0.333-0.709,0.74v15.193c0,0.404,0.321,0.737,0.709,0.737h8.696c0.389,0,0.709-0.333,0.709-0.737v-1.787
		c0-0.405-0.321-0.715-0.709-0.715h-6.086v-3.595h4.713c0.388,0,0.709-0.333,0.709-0.737v-1.763c0-0.404-0.321-0.738-0.709-0.738
		h-4.713v-3.357h6.086c0.389,0,0.709-0.333,0.709-0.738V188.771z M152.689,204.702c0.389,0,0.708-0.333,0.708-0.737v-15.193
		c0-0.406-0.319-0.74-0.708-0.74h-1.899c-0.39,0-0.711,0.333-0.711,0.74v5.951h-5.422v-5.951c0-0.406-0.321-0.74-0.709-0.74h-1.901
		c-0.388,0-0.709,0.333-0.709,0.74v15.193c0,0.404,0.321,0.737,0.709,0.737h1.901c0.388,0,0.709-0.333,0.709-0.737v-6.001h5.422
		v6.001c0,0.404,0.321,0.737,0.711,0.737H152.689z M134.087,198.748c-0.458,0-0.549,0.381-0.597,0.738
		c-0.113,1.145-0.937,2.215-2.607,2.215c-1.671,0-3.021-1.285-3.021-3.738v-3.143c0-2.453,1.35-3.787,3.021-3.787
		c1.671,0,2.425,1.167,2.607,2.309c0.07,0.477,0.322,0.643,0.573,0.643h2.335c0.342,0,0.525-0.238,0.503-0.594
		c-0.183-2.881-2.357-5.596-6.019-5.596s-6.339,2.81-6.339,6.975v3.193c0,4.167,2.677,6.978,6.339,6.978s5.857-2.811,6.063-5.62
		c0.025-0.262-0.183-0.572-0.502-0.572H134.087z M119.408,193.13c0.39,0,0.709-0.336,0.709-0.742c0-2.379-1.899-4.594-5.469-4.594
		c-3.937,0-5.766,1.856-5.766,4.644c0,6.333,8.169,4.262,8.169,7.572c0,1.429-0.734,1.928-2.518,1.928
		c-2.449,0-2.656-1.761-2.745-2.215c-0.069-0.286-0.277-0.644-0.666-0.644h-1.853c-0.388,0-0.709,0.334-0.709,0.741
		c0,2.236,1.832,5.119,5.973,5.119c2.929,0,5.837-1.288,5.837-4.93c0-6.572-8.171-4.525-8.171-7.572
		c0-1.311,0.916-1.644,2.403-1.644c1.487,0,1.968,0.882,2.197,1.666c0.115,0.455,0.344,0.67,0.733,0.67H119.408z M93.253,190.534
		c0,0.404,0.321,0.738,0.709,0.738h3.799v12.693c0,0.404,0.32,0.737,0.708,0.737h1.9c0.389,0,0.71-0.333,0.71-0.737v-12.693h3.8
		c0.388,0,0.708-0.333,0.708-0.738v-1.763c0-0.406-0.32-0.74-0.708-0.74H93.963c-0.389,0-0.709,0.333-0.709,0.74V190.534z
		 M86.755,188.031c-0.39,0-0.71,0.333-0.71,0.74v9.429c0,2.453-1.144,3.501-2.769,3.501c-1.626,0-2.725-1.048-2.725-3.501v-9.429
		c0-0.406-0.319-0.74-0.708-0.74h-1.9c-0.389,0-0.71,0.333-0.71,0.74v9.429c0,4.168,2.427,6.741,6.043,6.741
		c3.615,0,6.087-2.572,6.087-6.741v-9.429c0-0.406-0.32-0.74-0.711-0.74H86.755z M72.772,188.771c0-0.406-0.322-0.74-0.709-0.74
		h-8.697c-0.388,0-0.709,0.333-0.709,0.74v15.193c0,0.404,0.321,0.737,0.709,0.737h8.697c0.387,0,0.709-0.333,0.709-0.737v-1.787
		c0-0.405-0.322-0.715-0.709-0.715h-6.087v-3.595h4.713c0.39,0,0.709-0.333,0.709-0.737v-1.763c0-0.404-0.319-0.738-0.709-0.738
		h-4.713v-3.357h6.087c0.387,0,0.709-0.333,0.709-0.738V188.771z M51.398,191.293c1.671,0,3.066,1.31,3.066,3.741v2.69
		c0,2.429-1.395,3.715-3.066,3.715h-2.379v-10.146H51.398z M51.398,204.702c3.684,0,6.454-2.811,6.454-6.977v-2.74
		c0-4.167-2.747-6.954-6.454-6.954H46.41c-0.39,0-0.71,0.333-0.71,0.74v15.193c0,0.404,0.321,0.737,0.71,0.737H51.398z"/>
</g>
</svg>
